<svg xmlns="http://www.w3.org/2000/svg" width="19.318" height="19" viewBox="0 0 19.318 19">
  <g id="Group_964" data-name="Group 964" transform="translate(-108 -458)">
    <path id="Path_1974" data-name="Path 1974" d="M15.085,45v1.8h-1.2V45H5.426v1.8h-1.2V45H0v3.006H19.318V45Z" transform="translate(108 414.804)" fill="#00263b"/>
    <path id="Path_1975" data-name="Path 1975" d="M0,162.866H10.227a5.69,5.69,0,1,1,9.092-6.582V150H0Zm8.231-11.343h2.846v1.2H8.231Zm-5.671,0H5.406v1.2H2.56Zm0,4.008H5.406v1.2H2.56Zm0,4.008H5.406v1.2H2.56Z" transform="translate(108 313)" fill="#00263b"/>
    <path id="Path_1977" data-name="Path 1977" d="M346.37,0h1.2V1.8h-1.2Z" transform="translate(-224.488 458)" fill="#00263b"/>
    <path id="Path_1978" data-name="Path 1978" d="M105.37,0h1.2V1.8h-1.2Z" transform="translate(6.854 458)" fill="#00263b"/>
    <circle id="Ellipse_130" data-name="Ellipse 130" cx="4.9" cy="4.9" r="4.9" transform="translate(117 467)" fill="#00263b"/>
    <text id="_" data-name="₹" transform="translate(120 475)" fill="#fff" font-size="8" font-family="ArialMT, Arial"><tspan x="0" y="0">₹</tspan></text>
  </g>
</svg>
